<svg width="320" height="148" viewBox="0 0 320 148" fill="none" xmlns="http://www.w3.org/2000/svg">
<path fill-rule="evenodd" clip-rule="evenodd" d="M-351.286 116.575L-294.92 113.355C-239.08 110.135 -126.348 40.3254 -14.1428 40.3254C98.0626 40.3254 210.795 110.135 323 111.245C435.205 112.355 604.304 2.10972 660.143 0V148.554H603.777C547.938 148.554 435.205 148.554 323 148.554C210.795 148.554 98.0626 148.554 -14.1428 148.554C-126.348 148.554 -239.08 148.554 -294.92 148.554H-351.286V116.575Z" fill="white"/>
<path fill-rule="evenodd" clip-rule="evenodd" d="M-351.286 145.021L-294.92 141.801C-239.08 138.581 -126.348 68.7717 -14.1428 68.7717C98.0626 68.7717 210.795 138.581 323 139.691C435.205 140.802 604.304 30.556 660.143 28.4463V177H603.777C547.938 177 435.205 177 323 177C210.795 177 98.0626 177 -14.1428 177C-126.348 177 -239.08 177 -294.92 177H-351.286V145.021Z" stroke="url(#paint0_linear_1044_443)"/>
<defs>
<linearGradient id="paint0_linear_1044_443" x1="154.429" y1="28.4463" x2="154.429" y2="177" gradientUnits="userSpaceOnUse">
<stop offset="0.0104167" stop-color="#EBF3FA"/>
<stop offset="0.333333" stop-color="#E6EFF9"/>
<stop offset="1" stop-color="#E6F0F9"/>
</linearGradient>
</defs>
</svg>
