<svg width="414" height="185" viewBox="0 0 414 185" fill="none" xmlns="http://www.w3.org/2000/svg">
<path fill-rule="evenodd" clip-rule="evenodd" d="M-470 145.554L-399.622 141.533C-329.902 137.513 -189.146 50.3498 -49.0477 50.3498C91.0505 50.3498 231.806 137.513 371.905 138.899C512.003 140.285 723.137 2.63417 792.857 0V185.482H722.479C652.759 185.482 512.003 185.482 371.905 185.482C231.806 185.482 91.0505 185.482 -49.0477 185.482C-189.146 185.482 -329.902 185.482 -399.622 185.482H-470V145.554Z" fill="white"/>
<path fill-rule="evenodd" clip-rule="evenodd" d="M-470 181.071L-399.622 177.051C-329.902 173.03 -189.146 85.8674 -49.0477 85.8674C91.0505 85.8674 231.806 173.03 371.905 174.417C512.003 175.803 723.137 38.1517 792.857 35.5176V221H722.479C652.759 221 512.003 221 371.905 221C231.806 221 91.0505 221 -49.0477 221C-189.146 221 -329.902 221 -399.622 221H-470V181.071Z" stroke="url(#paint0_linear_1052_553)"/>
<defs>
<linearGradient id="paint0_linear_1052_553" x1="161.429" y1="35.5176" x2="161.429" y2="221" gradientUnits="userSpaceOnUse">
<stop offset="0.0104167" stop-color="#EBF3FA"/>
<stop offset="0.333333" stop-color="#E6EFF9"/>
<stop offset="1" stop-color="#E6F0F9"/>
</linearGradient>
</defs>
</svg>
