<svg width="1922" height="338" viewBox="0 0 1922 338" fill="none" xmlns="http://www.w3.org/2000/svg">
<path fill-rule="evenodd" clip-rule="evenodd" d="M1 224.041L108 217.852C214 211.664 428 77.5 641 77.5C854 77.5 1068 211.664 1281 213.798C1494 215.932 1815 4.05459 1921 0V285.5H1814C1708 285.5 1494 285.5 1281 285.5C1068 285.5 854 285.5 641 285.5C428 285.5 214 285.5 108 285.5H1V224.041Z" fill="white"/>
<path fill-rule="evenodd" clip-rule="evenodd" d="M1 275.541L108 269.352C214 263.164 428 129 641 129C854 129 1068 263.164 1281 265.298C1494 267.432 1815 55.5546 1921 51.5V337H1814C1708 337 1494 337 1281 337C1068 337 854 337 641 337C428 337 214 337 108 337H1V275.541Z" stroke="url(#paint0_linear_1695_395)" stroke-width="2"/>
<rect x="2" y="284" width="1918" height="53" fill="white"/>
<defs>
<linearGradient id="paint0_linear_1695_395" x1="961" y1="51.5" x2="961" y2="337" gradientUnits="userSpaceOnUse">
<stop offset="0.0104167" stop-color="#EBF3FA"/>
<stop offset="0.333333" stop-color="#E6EFF9"/>
<stop offset="1" stop-color="#E6F0F9"/>
</linearGradient>
</defs>
</svg>
